<?xml version="1.0" encoding="UTF-8"?>
<svg id="Layer_1" xmlns="http://www.w3.org/2000/svg" version="1.1" viewBox="0 0 595.28 1024">
  <!-- Generator: Adobe Illustrator 29.6.1, SVG Export Plug-In . SVG Version: 2.1.1 Build 9)  -->
  <defs>
    <style>
      .st0 {
        fill: #cbdfed;
      }

      .st1 {
        fill: #08090a;
      }

      .st2 {
        fill: #01318e;
      }

      .st3 {
        fill: #101518;
      }

      .st4 {
        fill: #111518;
      }

      .st5 {
        fill: #0363a9;
      }

      .st6 {
        fill: #0e0f10;
      }

      .st7 {
        fill: #064999;
      }

      .st8 {
        fill: #fdfcfb;
      }

      .st9 {
        fill: #0b5ba5;
      }

      .st10 {
        fill: #040506;
      }
    </style>
  </defs>
  <path class="st5" d="M415.35,545.75c1.11,1.01,2.22,2.03,3.44,3.46.32.57.53.72.73.87,0,0-.06,0-.07.23.73,1.04,1.45,1.84,2.18,2.65,0,0-.06,0-.05.23.34.47.67.73,1.02.98,0,0,0,.03-.11.29.2.55.52.83.84,1.13,0,0-.03.05-.12.29.11.64.32,1.04.55,1.42,0,0-.06,0-.06.2.26.55.5.89.76,1.24,0,0-.06,0-.07.26.07.96,0,1.73.26,2.36,3.17,7.5,2.79,15.2,1.02,22.91-.65,2.85-1.77,5.58-2.67,8.34,0,0,0-.05-.18.05-.29.53-.41.95-.53,1.39,0,0,0-.05-.21.03-.76,1.01-1.31,1.94-1.87,2.85,0,0,0-.06-.17.03-.2.36-.23.61-.26.87,0,0,.03.03-.23,0-.65.66-1.07,1.33-1.48,2,0,.23-.09.42-.63.66-.49.32-.63.55-.78.75,0,0,0-.06-.2-.06-.55.23-.9.46-1.48.79-.35.63-.5,1.15-.65,1.67,0,0-.09.1-.36.03-.67.35-1.1.75-1.51,1.16,0,0-.03-.06-.23-.05-.38.36-.55.69-.73,1.04,0,0-.14.09-.38,0-.43.09-.61.26-.78.43,0,0-.03-.08-.26-.06-1.02.23-1.86.31-2.54.7-9.37,5.35-19.08,5.85-29.07,2.17-3-1.11-5.97-2.38-8.94-3.57,0,0,.03-.03,0-.26-1.05-.87-2.07-1.51-3.11-2.17,0,0-.06-.1-.03-.33-.2-.31-.43-.36-.65-.42,0,0-.03-.08,0-.29-.2-.26-.44-.29-.67-.35,0,0-.12-.09-.09-.35-.2-.32-.43-.38-.64-.43,0,0-.03-.08,0-.35-.4-1.1-.73-2.01-1.27-2.76-7.61-10.46-9.72-21.87-5.67-34.33.92-2.81,1.89-5.61,2.69-8.45.15-.56-.26-1.28-.41-1.93-7.07-8.36-14.15-16.71-21.2-25.09-2.09-2.47-4.1-5.03-6.04-7.88-.06-.33-.2-.33-.36-.33,0,0-.11-.11-.07-.4-.2-.37-.46-.46-.7-.55.11-.06.21-.12.2-.36-2.26-2.39-4.4-4.61-6.55-6.83,0,0,0-.11.05-.29-.2-.29-.46-.4-.71-.49,0,0,.09-.05.09-.26-.79-1.39-1.34-2.88-2.39-3.65-1.58-1.15-3.53-1.8-5.32-2.65-.63,1.75-1.72,3.5-1.83,5.28-.47,9.76,1.28,19.74-2.83,29.13,0,0,0-.06-.15.03-.2.36-.23.62-.26.88,0,0,0,.03-.2,0-.23.23-.24.47-.26.72,0,0-.07.16-.35.12-.49.37-.67.76-.88,1.17-3.32,4.92-8.01,7.75-14.07,8.95-.71-.29-.93-.42-1.16-.42-26.39,0-52.78-.03-79.16,0-.84,0-1.66.81-2.48,1.24-2.38,1.54-5.12,2.73-7.08,4.71-12.97,13.13-25.79,26.46-38.64,39.7-2.5,2.58-5.24,4.99-9.01,4.54-1.86-.23-3.6-1.52-5.35-2.71-.32-4.09-.92-7.82-.96-11.54-.15-10.37,0-20.73-.11-31.1,0-1.15-.9-2.29-1.39-3.43-.12,0-.24-.03-.65-.1-.29-.08-.52-.25-.34-.41.21-.27.28-.4.28-.5,0-.08-.09-.23-.15-.23-1.97-.08-3.94-.16-5.92-.21-9.93-.2-20.11,1.51-29.3-4.13,0,0,.15-.05.12-.25-1-.63-1.97-1.08-2.94-1.52,0,0-.15-.1-.05-.4-.29-1.04-.69-1.8-1.08-2.55-.21.32-.44.66-.65.98-2.62-3.74-5.04-7.55-4.66-12.95.3-1.72.44-2.91.44-4.09,0-48.4,0-96.8.03-145.2,0-2.25.43-4.49.5-6.74.03-.75-.38-1.5-.59-2.25.96-1.97,1.92-3.93,3.2-6.18,1.34-1.82,2.36-3.35,3.38-4.9,0,0,.09-.06.36,0,4.84-2.76,9.18-6.17,14.89-6.08,57.82.87,115.67-1.78,173.47,1.37,0,0-.06.03.06.2.52.29.94.41,1.35.52,0,0-.06.03.03.23.75.53,1.42.87,2.09,1.2,0,0-.06.03,0,.18.28.29.49.42.69.56,0,0-.06,0,.03.15.3.11.52.08.73.05,0,0,.3.06.26.35.15.29.32.29.5.31,0,0,.28.11.21.41.14.31.32.33.52.35,0,0,.17.08.15.37.35.49.73.68,1.08.88,0,0-.07.05-.03.26.5.55.96.88,1.42,1.2,0,0-.06.03-.03.23.36.44.69.68,1.02.92,0,0-.03,0-.06.23.15.4.35.58.55.75.26.03.44.15.59.78.29.73.52,1.08.76,1.41,0,0-.06,0-.05.26,2.04,5.98,2.18,11.9,2.13,17.89-.12,13.64-.06,27.3,0,40.93,0,1.13.65,2.26,1.02,3.39.85,2.52,1.98,1.58,3.24.33,5.18-5.11,10.43-10.13,15.58-15.28,6.29-6.31,12.56-12.64,18.73-19.07,5.71-5.96,11.34-12.03,16.86-18.18.7-.78,1.1-2.58.71-3.54-1.95-4.83-2.69-9.78-2.71-15-.03-4.99.9-9.68,3.02-14.53,2.77-4.19,5.18-8.11,7.57-12.03,0,0,.11-.11.34-.06.3,0,.41-.08.41-.14,0-.15-.07-.29-.11-.43,0,0,.09-.23.38-.16.32-.17.38-.38.43-.61,0,0,.09-.11.38,0,1.55-1.14,2.82-2.36,4.07-3.57,0,0,.07.18.29.17,4.04-1.63,7.73-3.86,11.71-4.74,7.4-1.65,14.93-1.78,22.18,1.34,1.02.44,2.24.41,3.35.59,0,0-.06.03.03.23,1.51.84,2.94,1.48,4.34,2.12,0,0,.17.08.14.4,1.05.96,2.13,1.63,3.21,2.29,0,0-.06.03,0,.18.28.29.5.42.7.56,0,0-.06,0,0,.16.28.29.49.42.69.56,0,0-.06,0,0,.16.28.29.49.42.69.56,0,0-.06,0,0,.16.28.29.49.42.69.56,0,0-.06,0,0,.16.28.29.49.42.69.56,0,0-.06.03-.05.23.34.35.65.49.98.63,0,0,.24.15.15.42.09.29.26.29.44.29,0,0,.26.11.2.41.15.33.36.38.56.42,0,0,.12.12.07.4.11.44.29.63.46.82,7.66,9.99,8.5,21.14,5.22,32.93-2.13,7.67-6.46,13.77-12.72,18.55-5.62,4.29-5.54,4.38-3.06,10.77,4.89,12.59,9.81,25.18,14.67,37.78,1.42,3.65,4.54,2.44,7.28,3.07,0,.4-.18.56-.32.75-.03.05.03.26.09.27,3.06.53,6.11,1.05,9.17,1.57,0,0-.05,0,.06.18.53.29.94.41,1.35.52,0,0-.06,0,.03.23.98.55,1.87.88,2.77,1.22,0,0-.05,0,.03.21.75.53,1.43.88,2.09,1.21,0,0-.06,0,.03.21,1.31.87,2.53,1.54,3.75,2.2,0,0,.05.1,0,.35.2.29.43.32.67.36,0,0,.09.08.07.35.36.47.75.68,1.14.88.4.32.79.64,1.27,1.41.43.63.76.82,1.11,1.01,0,0,0,.09-.03.37,1.05,1.65,2.15,3.02,3.25,4.39,0,0-.06,0-.05.23.26.55.52.89.78,1.22,0,0-.06,0-.07.25,1.43,3.92,2.85,7.59,4.28,11.27,0,0-.06,0-.07.31.18,5.61.38,10.92.56,16.23-2.03,9.62-7.05,17.22-15.22,22.79-1.2.5-2.06,1.14-2.9,1.75,0,0,0-.06-.2-.05-.53.26-.87.52-1.2.78,0,0,0-.06-.26-.08-5.16,1.17-10.01,2.7-14.97,3.48-6.47,1.01-12.55-1.17-18.64-3.72-1.25-.52-2.34-.84-3.43-1.15,0,0,.06-.05.03-.27-.75-.55-1.46-.87-2.18-1.17-.21,0-.41-.08-.59-.66-1.55-1.58-3.05-2.76-4.54-3.92,0,0-.03-.09,0-.36-.9-1.24-1.86-2.2-2.82-3.17,0,0-.11-.12-.03-.41-.34-.69-.75-1.1-1.16-1.51,0,0,.07-.03.07-.26-1.28-2.36-2.55-4.49-3.82-6.62,0,0,0-.11.12-.43-.29-1.16-.73-1.99-1.14-2.84,0,0,.03,0,0-.26-1.6-1.05-3.11-1.98-4.72-2.56-1.05-.38-2.3-.18-3.44-.35-10.07-1.34-20.13-2.68-30.2-4.03-7.08-.95-14.18-1.91-21.58-2.87-5.28-.49-10.23-1.17-15.2-1.33-1.6-.05-3.23,1.33-4.83,2.26.05.36.09.49.11.64,0,0,0-.08-.23,0-1.64,2.53.12,6.54,3.26,8.01,0,0,0,.09-.03.36.85,1.14,1.74,1.99,2.62,2.85,0,0-.11.1-.07.29.35.33.67.49.99.63,0,0,.24.16.15.42-.09.26.15.5.15.5l.23-.27c.12.05.23.09.28.44.11.32.29.32.47.33,0,0,.26.11.2.41.14.31.32.32.5.33,0,0,.24.11.2.41.15.32.35.36.55.4,0,0,.15.09.07.41.41.61.9.89,1.37,1.17,0,0,0,.08-.06.35.87,1.14,1.8,2,2.74,2.85.23,0,.38.12.53.73.38.57.7.73,1.04.89,0,0,.18.15.09.41.12.29.32.33.52.36,0,0,.15.1.11.37.18.33.41.4.63.47,0,0,.03.08,0,.31.21.33.44.44.69.56,0,0-.15.26-.09.35.3.18.55.29.79.38,0,0,0,.2-.06.36,1.08,1.25,2.24,2.33,3.4,3.43,0,0-.06.03,0,.18.29.29.5.44.73.58.23,0,.4.12.56.72.38.57.71.75,1.05.9,0,0,.15.12.03.43.78,1.19,1.66,2.06,2.55,2.93,0,0-.09.05-.06.26.49.55.96.88,1.42,1.22,0,0-.07.05-.03.25.36.38.69.56,1.02.73,0,0,.07.11.03.36.18.33.41.42.64.5,0,0-.15.09-.09.29.29.32.52.43.76.56,0,0-.09.09-.07.23.26.29.5.41.73.53,0,0-.15.06-.15.27.96,1.04,1.9,1.86,2.83,2.7,0,0-.06.03,0,.18.26.29.47.44.69.59,0,0-.06,0-.07.27.55.66,1.13,1.07,1.69,1.47,0,0,.03.09,0,.33.2.35.44.46.67.57,0,0-.06.23-.06.38.73.82,1.48,1.5,2.21,2.17,0,0,.17.12.09.44.38.62.85.92,1.31,1.21,0,0-.05.06-.06.32.71.96,1.43,1.66,2.16,2.36,0,0,.14.11.06.43.87,1.07,1.8,1.82,2.74,2.58,0,0,.03.08,0,.35.65.56,1.33.84,2.01,1.14,0,0,.03.06.05.35,2.38.53,4.89,1.43,7.07.89,9.79-2.4,19.21-2.35,28.25,2.82.49.29,1.25.08,1.87.09,0,0,.15.06.14.36.41.38.84.47,1.25.56,0,0,0,.06,0,.27.26.25.49.29.73.31,0,0,.12.09.09.33.17.27.38.29.58.31,0,0,.17.08.15.37.35.49.73.68,1.1.88,0,0-.06.03.03.18.29.29.5.42.73.56M380.71,394.39c-.09.26-.2.52-.47.63,0,0,.2.1-.24.08-.09.26-.18.52-.32.53,0,0,.07.23-.44.16-.28.52-.55,1.02-.9,1.5,0,0,0,.08-.44,0-.05.25-.09.5-.23.81,0,0-.05.09-.46-.06-.05.25-.09.49-.23.78,0,0-.05.09-.46-.06-.03.25-.09.49-.21.82,0,0-.09.09-.49-.09-.05.23-.09.49-.21.79,0,0-.09.09-.5-.08-.06.25-.11.49-.24.75,0,0-.03.08-.46-.05-.06.25-.11.49-.24.78,0,0-.03.08-.44-.06-.03.23-.07.49-.2.84,0,0-.12.1-.5-.11-.06.08-.18.15-.18.21,0,.16.09.31.06.63,0,0-.14.14-.56-.08-.2.4-.38.79-.59,1.11,0,0,.07,0-.3.14-.14.23-.26.46-.41.58,0,0,.09,0-.29.15-.12.23-.24.47-.4.59,0,0,.12,0-.29.14-.15.25-.28.49-.53,1.08-.38.31-.73.62-1.52,1.07-.15.25-.32.49-.61,1.08-.38.31-.79.61-1.66.93-.2.35-.38.69-.67,1.1,0,0-.05.1-.52-.12-.28.49-.55.99-.9,1.5,0,0-.03.09-.5-.09-.3.5-.61,1-1.02,1.54,0,0,.09-.06-.41-.15-1.99,2.14-3.99,4.28-6.04,6.33,0,0,.09,0-.32.1-.14.23-.28.47-.44.59,0,0,.11,0-.28.12-.15.23-.29.44-.44.57,0,0,.09,0-.28.14-.15.23-.29.43-.43.58,0,0,.07.03-.43.03-.15.35-.29.69-.55,1.14,0,0-.07.11-.5-.11-.2.4-.38.81-.61,1.13,0,0,.07,0-.32.12-.14.23-.26.47-.41.58,0,0,.11,0-.29.15-.15.23-.28.47-.49,1.01-.11.2-.28.29-.9.43-.15.23-.29.49-.5,1.01-.11.2-.28.29-.9.42-.15.25-.29.49-.49,1.01-.09.2-.23.29-.87.42-.15.25-.3.49-.44.63,0,0,.09.05-.44,0-.28.53-.55,1.07-.9,1.52,0,0,.11,0-.4,0-.5.76-1.02,1.52-1.57,2.12,0,0,0,.17-.44.1-.09.26-.15.52-.32.44,0,0,.06.33-.38.27-.09.26-.17.52-.35.43,0,0,.09.35-.35.29-.09.26-.15.52-.32.46,0,0,.06.32-.38.26-.07.26-.15.52-.43.53,0,0,.17.26-.26.18-.06.26-.12.52-.26.81,0,0,0,.08-.49-.09-.28.5-.55,1.01-.9,1.51,0,0-.03.06-.47-.05-.07.25-.14.5-.26.79,0,0,0,.08-.36-.11-.2.4-.41.79-.75,1.58-.4.36-.81.7-1.58,1.21-.14.23-.28.44-.41.59,0,0,.07.03-.43.03-.32.49-.64.98-.98,1.41,0,0,.06.03-.43.03-.15.35-.32.7-.59,1.13,0,0-.14.06-.5-.14-.03.23-.06.46-.18.82,0,0-.15.09-.53-.1-.05.23-.09.49-.23.78,0,0-.03.09-.52-.1-.32.49-.63.99-1.07,1.48,0,0,.12-.05-.43-.09-2.48,2.78-1.78,8.27,1.22,10.28,0,0,0-.11-.03.49.43.37.81,1.02,1.25,1.08,5.83.56,11.68,1.04,17.96,1.54.29.03.58.08,1.28.49,1.29.06,2.59.14,3.82.21,0,0,0-.06.36.4,2.01.11,4.04.21,6.37.35,0,0,.29.11.73.49,1.99.06,3.97.12,5.89.21,0,0,0-.06.35.4,4.81.35,9.64.69,14.39,1.05,0,0,0-.06.35.4,7.62.96,15.24,1.97,22.88,2.84.61.08,1.31-.84,2.07-1.78,3.23-7.76,7.37-14.81,14.04-20.1.79-.63,1.14-2.79.75-3.89-5.16-14.36-10.47-28.67-15.83-42.94-.35-.93-1.39-1.88-2.32-2.25-5.93-2.32-11.91-4.49-18.09-6.79-.65.53-1.55,1.26-2.67,1.69-.26.44-.53.89-.82,1.33,0,0-.03-.03-.47-.06-.09.26-.15.52-.3.46,0,0,.05.32-.4.27h0l.02-.02Z"/>
  <path class="st4" d="M286.15,670.85c10.74,17.07,21.46,34.12,32.22,51.68.55,2.52,1.57,2.1,2.28.78.47-.87.49-2.06.49-3.11.03-6.7,0-13.41.03-20.1,0-12.92.07-25.85-.05-38.77-.03-2.7.75-3.63,3.38-3.43,3.02.21,6.09.23,9.11,0,2.88-.23,3.81.7,3.78,3.76-.14,17.23-.07,34.45-.06,51.68,0,12.8-.05,25.6.05,38.41.03,2.46-.65,3.5-3.15,3.29-2.21-.18-4.45-.15-6.66,0-3.73.23-7.3.35-8.9-4.19-.15-.44-1.17-.57-1.78-.84-12.14-19.67-24.28-39.35-36.4-59.03-.82-1.34-1.54-2.76-2.83-4.15-.82,1.31-1.35,2.62-1.35,3.93-.05,19.98-.09,39.96.03,59.94,0,2.85-.79,3.84-3.56,3.63-2.9-.23-5.85-.17-8.76,0-2.41.14-3.33-.66-3.24-3.23.17-4.42.05-8.86.05-13.28,0-25.36.05-50.73-.06-76.1,0-2.96.76-4,3.72-3.84,4.43.23,8.88.03,13.32,0,.24,0,.43.11.58.76.69,1.25,1.34,2.06,2.01,2.87.5.76,1.02,1.52,1.52,2.79.5,1.07,1,1.62,1.49,2.18,0,0-.07.03-.07.27.49.79.98,1.34,1.46,1.89,0,0-.07.03-.06.27.5.79.98,1.34,1.48,1.92h-.03l-.03.02Z"/>
  <path class="st4" d="M480.56,749.26c-1.23,1.15-2.48,2.3-4.2,3.51-4.04,1-7.57,1.91-11.07,2.91-.4.11-.61.89-.9,1.36-.32.03-.63.08-1.23-.21-.44-.49-.55-.81-.71-.84-6.47-1.37-13.38-1.33-18.87-5.98-.2-.17-.67,0-1.02,0,0,0,.06-.03.06-.29-1.27-1.34-2.54-2.45-3.81-3.55,0,0-.12-.1-.05-.4-.32-.72-.71-1.13-1.11-1.54,0,0,.06-.03.05-.27-.18-.94-.23-1.69-.55-2.29-4.78-9.06-3.82-18.9-3.49-28.55.11-3.19,1.43-6.38,2.42-9.5,1.11-3.55,2.47-7.03,3.7-10.52,0,0,.03.06.26.03,1.22-1.24,2.24-2.45,3.24-3.66,0,0,.03.08.28.08.69-.09,1.2-.05,1.58-.26,6.04-3.33,12.15-5.95,19.3-4.09,3.7.96,7.54,1.46,11.3,2.17,0,0-.07.03-.03.26.73.56,1.45.88,2.15,1.2.41.32.81.66,1.27,1.45.79,1.02,1.52,1.59,2.26,2.14.26,0,.44.12.61.75.52.69,1,.96,1.48,1.24-.06-.42-.12-.84-.18-1.26,0-11.27.03-22.53.43-34.13,4.01-.33,7.65-.12,11.26-.4,3.12-.23,3.94.83,3.93,4.01-.12,28.15-.07,56.29-.07,84.46,0,7.23,0,7.26-6.96,7.21-2.19,0-4.69.32-6.44-.63-.9-.49-.32-3.54-.76-5.34-.24-.94-1.25-1.68-1.93-2.51-.71,1.16-1.42,2.32-2.13,3.49M454.72,701.14c-.52.98-1.02,1.95-1.57,3.24,0,0-.11.29-.58.37-4.75,6.01-5.7,13.17-4.81,20.37.43,3.39,2.98,6.51,4.77,10.19,2.62,2.2,5.24,4.41,7.51,6.8.61.59,1.22,1.19,1.83,1.78.38-.42.76-.83,1.6-1.28.3.08.61.15.98.7,1.13,1.25,2.09,1.45,3.18-.59.32,0,.63.03,1,.5.92-.38,1.84-.76,3.12-1.43.58-.17,1.14-.33,2.01-.1.82-.67,1.64-1.34,2.67-2.41,1.08-1,2.18-2.01,3.79-3.07.3-.76.61-1.54.88-2.58,0,0,.15-.21.65-.29,1.78-2.09,3.08-4.29,1.43-7.61.06-.31.12-.63.73-1.08.23-.25.67-.52.65-.75-.49-5.11-.9-10.22-1.63-15.28-.14-.92-1.68-1.62-2.5-2.45,0,0-.03.08.03-.47-.5-.57-1.02-1.13-1.91-1.86-.78-.87-1.54-1.73-2.33-3.16-.73-.33-1.46-.66-2.48-.96,0,0-.24-.16-.32-.64-1.14-.27-2.3-.56-3.91-.76-.3-.06-.61-.12-1.02-.7-1.1-.52-2.28-1.6-3.26-1.43-3.75.62-7.57,1.34-10.49,4.97h0v-.02Z"/>
  <path class="st3" d="M405.43,752.92c-.32.23-.65.43-1.31.49-3.18.66-5.97,1.69-8.84,2.25-8.86,1.69-17.46.58-25.79-2.94-2.09-.89-4.17-1.82-6.26-2.73,0,0,.03-.03,0-.26-1.22-1.26-2.41-2.29-3.6-3.31-.24,0-.44-.12-.58-.78-2.48-6.66-5.23-12.72-6.62-19.41-1.34-6.47-.56-12.46,1.27-18.49,1.16-3.83,2.54-7.58,3.82-11.36,3.61-6.97,9.88-10.6,16.82-12.31,9.43-2.32,19.14-2.59,28.15,1.99,3.82,1.94,7.1,5.02,10.66,8.08-.2,2.52.71,3.43,2.65,3.34.5.79,1.02,1.57,1.37,2.75.7,3.93,1.49,7.49,2.47,11.01.15.58,1.17.9,1.8,1.34.03.32.07.63-.11,1.41-.07,4.15.09,7.85.23,11.55,0,.55,0,1.08-.32,1.93-1.02,3.19-1.77,6.07-2.48,8.95,0,0-.03.32-.21.56-.35.42-.44.63-.49.88,0,0-.03.32-.21.57-.35.42-.44.63-.49.88,0,0-.03.32-.21.57-.35.42-.44.63-.49.88,0,0-.03.32-.21.57-.35.43-.44.64-.49.88-.79,1.36-1.58,2.72-2.71,4-1.43,1.17-2.54,2.44-3.64,3.7-.53.49-1.07.95-2.06,1.5-1.02.57-1.57,1.07-2.13,1.56M376.65,740.61s.03-.06.05.41c.46.49.84,1.14,1.37,1.47,4.75,2.91,15.24,2.26,19.39-1.42,1.34-1.2,2.01-3.2,3.03-4.77,0,0-.06-.03.47-.09.12-.57.24-1.15.5-1.99.17-.23.34-.47,1.02-.83.64-1.01,1.45-1.95,1.87-3.05,2.27-5.92,2.56-12.06.7-18.03-.93-2.97-.55-7.11-5.15-8.47-1-1.08-1.99-2.19-3-3.81-1.51-1.15-2.88-2.66-4.57-3.34-1-.41-2.5.49-4.37.9-1.2-.05-2.42-.09-3.7-.63-2.54-1.2-6.53.5-8.5,3.97-1.14,1.01-2.28,2.03-3.94,3.16-.09.58-.18,1.16-.79,1.88-.07-.17-.15-.33-.56-.38-.06.06-.14.12-.2.2.18-.06.36-.12.99.37-.09.23-.2.43-.85.76-4.13,5.26-3.31,11.58-3.46,17.65,0,.55,1.22,1.11,2.01,2.14,0,.32.03.63-.44,1.02-.85,2.87,2.03,8.88,5.15,10.09.3.4.61.81.94,1.74.7.33,1.4.68,2.04,1.05h0Z"/>
  <path class="st3" d="M552.14,683.05c.32,0,.63.03,1.2.35,3.64,2.09,7.02,3.89,10.42,5.6.44.23,1.14-.15,1.72-.25,2.56,2.71,5.12,5.4,7.69,8.65,1.6,4.22,3.21,7.9,4.81,11.59.03.32.07.63-.12,1.22.12,1.45.47,2.62.82,3.81.03.32.07.64-.14,1.33-.32,3.17-.41,5.98-.49,8.8-2.13.05-4.26.1-6.76-.06-.56-.12-.78-.03-.96.05-5.87.05-11.73.1-18.09-.14-2.01-.15-3.55,0-5.07.14-5.1.06-10.2.17-15.31.14-1.57,0-2.48.29-2.5,2.46-1.39,2.98.28,7.03,3.19,8.83,1.56,1.51,3.12,3,4.77,4.99,2.04,2.41,3.95,4.47,7.07,2.93.32,0,.63,0,1.23.33,5.44,2.59,13.63-1.56,15.6-7.44,4.46-.03,8.94-.08,13.77.2,3.11,2.56-.26,4.8.34,7.03,0,0-.03-.06-.26-.03-.55.75-.85,1.48-1.17,2.21,0,.25-.09.43-.7.61-.79.73-1.17,1.42-1.57,2.12-.98.94-1.95,1.89-3.29,2.71-.71.26-1.08.64-1.45,1.01,0,0-.03-.08-.26-.06-.69.08-1.19.06-1.6.23-7.62,3.07-15.37,5.33-23.64,3.31-4.57-1.11-9.38-1.45-13.3-4.67-2.65-2.18-5.57-4.04-8.37-6.06,0,0,.06-.03.05-.27-1.63-4.15-4.29-7.94-4.64-11.94-.53-6.19-3.44-12-1.29-18.81,2.01-6.39,2.65-13.18,6.98-18.67.59-.75.71-1.91,1.05-2.88.34-.42.67-.85,1.45-1.34.9-.15,1.48-.1,1.78-.36,7.54-6.02,16.16-7.36,25.37-6.41.5.05,1.08-.81,1.6-1.24M536.7,698.93s.05.03-.5.03c-.59.82-1.17,1.62-1.86,2.59,0,0-.15.11-.63-.16-2.18,1.15-5.76,8.67-4.88,10.78.43,1.02,1.66,2.39,2.55,2.41,9.7.16,19.39.15,29.09-.03.96,0,2.8-1.8,2.65-2.2-.9-2.62-2.22-5.09-3.76-7.78-.09-.37-.2-.73-.26-1.67-.53-.57-1.07-1.15-1.95-1.86-.29-.41-.58-.81-.88-1.78-1-.56-1.99-1.11-3.26-1.65,0,0-.2-.18-.26-.66-1.08-.58-1.62-3.66-3.94-.75-.3-.08-.61-.15-1.02-.75-2.83-1.37-5.42-1.34-7.9,1.34,0,0-.3,0-.87,0-.78.75-1.55,1.47-2.33,2.15h0Z"/>
  <path class="st3" d="M175.2,723.36c-.05-.32-.09-.64.12-1.34.58-1.22,1.07-2.06,1.16-2.94.34-2.98.03-6.13.9-8.93,1.39-4.54,2.88-9.29,5.44-13.17,5.3-8.04,13.34-12.07,22.67-12.6,5.1-.29,10.33.55,15.41,1.37,3.56.58,7.01,1.99,10.49,3.03,0,0-.07.03-.03.26.73.55,1.43.87,2.13,1.19,0,0-.06.03-.06.27.67,2.87,2.01,4.74,4.95,4.77,0,0-.06.03-.05.26.5.78.99,1.33,1.49,1.86,0,0-.07.03-.07.29,1.39,5.4,2.73,10.57,4.23,15.69.36,1.25,1.31,2.33,1.97,3.49.03,2.18.07,4.36-.2,6.9-.81,1.07-1.56,1.71-1.77,2.5-.96,3.89-1.72,7.83-2.65,11.71-.4,1.66-1.04,3.25-1.57,4.88-1.51,2.06-3.02,4.13-5.01,6.27-.99.61-1.49,1.11-2.01,1.63-.53.44-1.07.88-2.07,1.33-5.19,1.34-9.82,3.11-14.61,3.92-6.74,1.14-13.36-.43-19.78-2.52-2.92-.95-5.73-2.32-8.59-3.51,0,0,.06-.03.03-.26-1.43-1.5-2.85-2.77-4.26-4.06,0,0,.06-.03.06-.27-3.25-6.83-6.16-13.54-6.67-21.08-.03-.37-1.08-.67-1.66-.99M224.93,736.26s-.07-.03.43-.05c.53-.59,1.34-1.08,1.54-1.78,1.11-3.87,2.42-7.73,2.97-11.7.46-3.3.14-6.77-.21-10.11-.2-1.92-.96-3.84-1.83-5.59-.4-.82-1.62-1.2-2.65-1.91,0,0-.09-.2.18-.66-.41-.4-.84-.79-1.63-1.34-.55-.63-1.08-1.26-1.63-2.42-2.07-1.51-4.05-3.19-6.28-4.42-.55-.31-1.84.76-3.4,1.3-1.43-.03-2.88-.06-4.37-.58-2.42-1.6-3.54.4-5.21,2.08-.63.31-1.25.62-2.48.72-.67.75-1.33,1.5-2.04,2.53-.11.2-.28.29-1.02.27-4.48,3.04-6.57,9.91-4.49,15.66-.05,1.47-.09,2.93-.65,4.51-1.81,3.77-.4,8.68,3.44,11.6,0,0-.03.27-.07.87-.2,1.68.3,2.72,2.59,2.62.55.63,1.11,1.25,1.68,2.4,3.53,4.35,8.7,3.89,13.34,4.33,1.72.16,3.67-2.03,5.77-3.31,0,0,.29,0,.75.18,1.95.98,1.78-.43,1.9-1.99.15-.21.35-.31,1.14-.29.73-.99,1.48-1.98,2.26-2.91h-.03Z"/>
  <path class="st3" d="M116.06,698.91c.05.32.09.63-.06,1.34.14,1.25.46,2.12.79,2.98.09,12.23.15,24.45.24,37.23.03,1.89.09,3.25.14,4.6-.05,2.9-.09,5.79-.55,8.95-4.16.29-7.91.06-11.63.36-3.31.26-4.4-.75-4.34-4.3.21-12.2.2-24.43.05-36.63-.15-11.94-6.46-17.31-15.84-17.25-1.74,0-3.46,1.72-5.18,2.65,0,0-.29.11-.7.11-.96.5-1.52,1.02-2.07,1.54-.34.42-.69.84-1.37,1.13-1.42,1.17-2.5,2.5-3.59,3.81-.44.57-.9,1.15-1.69,2-.61,1.5-1.08,2.71-1.08,3.92-.06,11.13-.03,22.26-.03,33.4,0,10.29,0,10.16-10.18,10.34-3.47.06-4.66-.9-4.63-4.62.17-18.8.05-37.58.09-56.38.03-9.24-1.14-8.01,7.74-8.08,6.44-.05,6.41,0,7.02,6.34.07.73.52,1.97.88,2,.79.09,1.9-.23,2.42-.81.55-.59.58-1.71.85-2.58.76-.94,1.54-1.88,2.68-2.67,2.32-.68,4.45-1.21,6.16-2.39,3.31-2.27,6.96-1.14,10.43-1.54,4.34-.5,8.66-.89,12.6,1.8.69.47,1.77.33,2.65.49,0,0-.07.03-.05.23.47.29.92.41,1.37.52,1.13,1.26,2.25,2.53,3.5,4.18.23.61.38.76.59.88,0,0,.12.29.14.75,1.17,2.06-.76,5.33,2.68,5.72h-.03Z"/>
  <path class="st4" d="M170.82,657.95c.03,2.66.07,5.32-.24,8.3-1.46.1-2.61-.41-3.69-.29-1.72.2-3.41.81-5.12,1.25-.3.03-.61.09-1.27-.03-.73.2-1.14.56-1.54.92-.76.66-1.54,1.31-2.77,2.06-2.42,1.84-3.76,3.76-2.15,6.5.05,2.18.09,4.35.09,7.03-.06.49-.09.83-.03,1.11,1.78.59,3.52,1.13,5.25,1.17,11,.33,9.25-2.03,9.38,9.94,0,.32-.2.66-.28.87-3.93,0-7.75-.11-11.58.08-.96.05-1.84,1.05-2.77,1.6.03.26.07.53-.18,1.19-.4,1.68-.59,2.98-.59,4.28-.03,15.68-.12,31.35.07,47.03.03,3.43-1.05,4.39-4.17,4.09-2.55-.23-5.16-.23-7.71,0-2.97.29-3.73-.88-3.7-3.83.14-15.2.12-30.4.03-45.58-.03-7.72,1.84-9.39-8.39-8.86h-.35c-1.78.18-2.5-.61-2.48-2.47.06-9.82-.75-8.34,7.21-8.24,3.17.03,4.11-1.28,4.08-4.24-.03-3.81-.41-7.76.38-11.42,1.87-8.68,9.65-14.49,18.46-14.62,2.85-.05,5.69-.47,8.53-.72.32,0,.63,0,1.22.29,1.62,1.07,2.96,1.83,4.3,2.59h.02Z"/>
  <path class="st4" d="M33.31,657.2c.32-.05.63-.1,1.16.25.23,17.77.23,35.15.23,52.51,0,13.77-.05,27.56.05,41.31.03,2.81-.9,3.89-3.66,3.75-3.38-.17-6.8-.27-10.17.03-3.25.29-3.84-1.05-3.82-4.09.11-29.47.12-58.93,0-88.4,0-3.58.92-4.88,4.53-4.74,3.89.16,7.79-.4,11.69-.64h-.02Z"/>
  <path class="st6" d="M277.63,657.6c-4.31.32-8.77.52-13.19.29-2.96-.15-3.73.89-3.72,3.84.11,25.36.06,50.73.06,76.1,0,4.42.12,8.86-.05,13.28-.09,2.58.84,3.37,3.24,3.23,2.91-.17,5.86-.21,8.76,0,2.77.21,3.58-.78,3.56-3.63-.11-19.98-.07-39.96-.03-59.94,0-1.31.55-2.62,1.11-4,.28,23.03.28,46.12.28,69.39h-18.99v-98.86c5.97,0,12.41,0,18.98.31h0Z"/>
  <path class="st10" d="M316.9,750.25c.55,0,1.57.14,1.72.58,1.62,4.54,5.18,4.42,8.9,4.19,2.21-.14,4.45-.17,6.66,0,2.5.21,3.18-.83,3.15-3.29-.09-12.8-.05-25.6-.05-38.41,0-17.23-.07-34.45.06-51.68.03-3.05-.9-3.98-3.78-3.76-3.02.23-6.09.21-9.11,0-2.62-.18-3.41.75-3.38,3.43.12,12.92.05,25.85.05,38.77,0,6.7.03,13.41-.03,20.1,0,1.05-.03,2.24-.49,3.11-.71,1.33-1.74,1.74-2.26-.53.44-.81,1.31-1.37,1.31-1.93.07-20.5.06-40.98.03-61.46,0-.67-.24-1.33-.41-2.17h19.13v99.12c-5.52,0-11.16.47-16.63-.27-1.83-.25-3.25-3.63-4.92-5.81h.03v-.02Z"/>
  <path class="st9" d="M300.74,354.99c-57.67-2.93-115.51-.27-173.33-1.14-5.71-.09-10.05,3.33-14.85,6.05,4.32-5.7,10.51-7.43,17.27-7.43,49.36-.03,98.7-.03,148.06,0,5.7,0,11.41.29,17.1.69,1.91.14,3.76,1.05,5.77,1.84h0Z"/>
  <path class="st1" d="M165.1,654.81c-2.65.47-5.48.89-8.33.94-8.8.14-16.58,5.95-18.46,14.62-.79,3.66-.41,7.61-.38,11.42.03,2.96-.92,4.28-4.08,4.24-7.96-.1-7.14-1.6-7.21,8.24,0,1.88.7,2.66,2.48,2.47h.35c10.23-.52,8.36,1.15,8.39,8.86.09,15.2.09,30.4-.03,45.58-.03,2.96.73,4.1,3.7,3.83,2.55-.23,5.16-.23,7.71,0,3.12.29,4.22-.67,4.17-4.09-.2-15.66-.09-31.35-.07-47.03,0-1.3.2-2.59.52-4.09.21,18.59.21,37.38.21,56.35h-17.61v-3.69c0-16.9-.06-33.78.06-50.68.03-2.87-.81-3.89-3.6-3.65-2.42.23-4.88.05-7.5.05v-13.51h10.53c.18-3.71.29-7.15.52-10.57.84-12.26,9.03-18.93,19.63-19.72,2.9-.21,5.83.11,8.95.42h.03l.02.03Z"/>
  <path class="st10" d="M33,657.14c-3.58.31-7.49.88-11.36.72-3.61-.15-4.55,1.15-4.53,4.74.12,29.47.11,58.93,0,88.4,0,3.04.58,4.38,3.82,4.09,3.37-.29,6.79-.2,10.17-.03,2.77.14,3.69-.94,3.66-3.75-.09-13.77-.05-27.56-.05-41.31v-52.43c.47.43,1.33,1.2,1.35,1.99.14,4.67.06,9.33.06,14v82.66h-19.91v-99.11c5.38,0,10.91,0,16.77.06h0l.02-.03Z"/>
  <path class="st1" d="M73.08,691.06c-.03.76-.07,1.88-.61,2.47-.53.58-1.63.89-2.42.81-.36-.03-.82-1.28-.88-2-.61-6.36-.58-6.39-7.02-6.34-8.89.06-7.72-1.15-7.74,8.08-.05,18.8.07,37.59-.09,56.38-.03,3.71,1.16,4.68,4.63,4.62,10.18-.18,10.18-.05,10.18-10.34,0-11.13-.03-22.26.03-33.4,0-1.21.49-2.44,1-3.71.28,16.06.28,32.19.28,48.51h-17.26v-71.4h17.22v8.65c1.1-.99,1.78-1.6,2.69-2.32h0Z"/>
  <path class="st6" d="M480.8,749.13c.49-1.04,1.19-2.2,1.89-3.37.67.83,1.69,1.57,1.93,2.51.44,1.8-.15,4.85.76,5.34,1.77.95,4.25.62,6.44.63,6.96.05,6.96.03,6.96-7.21,0-28.15-.05-56.29.07-84.46,0-3.17-.81-4.24-3.93-4.01-3.61.27-7.25.06-11.19.06-.85-1.83.17-1.88,1.54-1.86,4.89.06,9.78.03,14.93.03v99.37h-17.47v-8.19l-1.02-.61c-.21.53-.44,1.07-.9,1.73h0v.02Z"/>
  <path class="st1" d="M79.93,698.83c1.45-.93,3.18-2.65,4.9-2.66,9.38-.06,15.69,5.31,15.84,17.25.15,12.2.17,24.43-.05,36.63-.06,3.55,1.04,4.55,4.34,4.3,3.72-.29,7.48-.08,11.55-.08.96,2.04-.24,2.06-1.69,2.06-5-.05-10.01-.03-15.54-.03v-3.83c0-12.41.06-24.83-.05-37.25-.03-2.78-.21-5.66-.96-8.31-2.01-7.14-9.7-11.5-18.35-8.08h.02Z"/>
  <path class="st6" d="M231.28,688.56c-3.4-.81-6.82-2.23-10.39-2.79-5.09-.83-10.31-1.67-15.41-1.37-9.31.53-17.36,4.56-22.67,12.6-2.56,3.89-4.05,8.63-5.44,13.17-.85,2.79-.55,5.95-.9,8.93-.09.88-.58,1.72-1.11,2.71-2.74-18.83,10.12-38.22,30.96-38.83,8.85-.26,17.16.62,24.94,5.6h0Z"/>
  <path class="st2" d="M105.32,371.19c.46.59.85,1.34.84,2.09-.09,2.25-.5,4.5-.5,6.74-.03,48.4-.03,96.8-.03,145.2,0,1.19-.14,2.38-.4,3.8-.26-.53-.32-1.3-.38-2.64-.05-1.58-.11-2.58-.15-3.6.03-.32.06-.63.14-1.52.05-11.92.06-23.29.06-34.65-.03-36.83-.05-73.67-.07-110.5.09-1.58.18-3.17.52-4.92h0-.02Z"/>
  <path class="st0" d="M104.6,376.35c.2,36.6.24,73.43.26,110.26,0,11.36,0,22.72-.09,34.42-.24-.7-.55-1.74-.55-2.77-.03-46.4-.03-92.8,0-139.2,0-.83.15-1.66.41-2.71h-.02Z"/>
  <path class="st6" d="M439.54,693.21c-1.02,3.39-2.38,6.86-3.49,10.41-.98,3.11-2.3,6.31-2.42,9.5-.32,9.67-1.28,19.5,3.49,28.55.32.61.36,1.34.53,2.32-1.83-4.01-4.34-8.14-5.27-12.61-1.23-5.92-2.09-12.2-1.48-18.13.55-5.16,3.26-10.11,5.24-15.07.71-1.77,2.07-3.25,3.37-4.99h0v.02Z"/>
  <path class="st6" d="M521.69,692.48c-.12.87-.23,2.03-.82,2.78-4.31,5.49-4.96,12.28-6.98,18.67-2.15,6.82.75,12.61,1.29,18.81.35,4.01,3,7.81,4.61,11.97-4.48-4.13-6.22-9.99-7.39-15.86-2.3-11.58-.36-22.53,6.04-32.5.87-1.34,2.01-2.51,3.26-3.86h0v-.02Z"/>
  <path class="st6" d="M357.29,696.47c-1.04,3.67-2.42,7.43-3.58,11.25-1.84,6.05-2.61,12.03-1.27,18.49,1.39,6.7,4.13,12.75,6.58,19.25-4.37-3.69-6.12-9.18-7.48-14.62-2.21-8.88-2.38-17.86,1.33-26.49,1.16-2.7,2.77-5.2,4.4-7.9v.03h0Z"/>
  <path class="st6" d="M519.79,745.23c2.77,1.75,5.68,3.63,8.35,5.8,3.93,3.22,8.74,3.55,13.3,4.67,8.26,2.01,16.01-.23,23.64-3.31.43-.17.9-.16,1.63-.21-4.32,1.86-8.78,4.6-13.53,5.38-10.3,1.67-20.15-.29-28.67-6.97-1.78-1.4-3.12-3.39-4.71-5.35h0Z"/>
  <path class="st2" d="M315.92,428.9c-.38-.81-1.02-1.93-1.02-3.05-.07-13.64-.14-27.3,0-40.93.05-6-.09-11.92-2.13-17.92,3.12,4.1,3.03,9.26,3.08,14.29.14,15.77.09,31.54.09,47.63h-.02Z"/>
  <path class="st9" d="M347.14,478.93c7.08.95,14.18,1.92,21.26,2.87,10.07,1.34,20.13,2.7,30.2,4.03,1.14.15,2.38-.03,3.44.35,1.63.58,3.14,1.52,4.72,2.58-3.76-.63-7.52-1.86-11.36-2.39-15.88-2.12-31.77-4.02-47.96-6.28-.29-.57-.29-.87-.29-1.16h0Z"/>
  <path class="st6" d="M187.8,750.23c2.74.96,5.54,2.33,8.47,3.29,6.43,2.09,13.04,3.65,19.78,2.52,4.8-.81,9.42-2.58,14.39-3.89-4.23,1.82-8.59,4.55-13.24,5.25-10.45,1.54-20.71.61-29.4-7.15h0v-.02Z"/>
  <path class="st9" d="M359.65,553.3c.21.4.64,1.13.49,1.68-.82,2.85-1.78,5.64-2.69,8.45-4.05,12.48-1.95,23.87,5.67,34.33.55.75.87,1.66,1.22,2.75-8.97-8.77-11.73-19.81-9.48-32.12.93-5.07,3.12-9.91,4.8-15.1h0,0Z"/>
  <path class="st6" d="M363.35,750.21c1.97.69,4.05,1.62,6.15,2.51,8.31,3.54,16.92,4.64,25.79,2.94,2.88-.55,5.67-1.6,8.64-2.21-8.07,5.02-16.88,5.18-25.89,3.7-5.42-.89-10.49-2.66-14.65-6.95h-.03v.02Z"/>
  <path class="st1" d="M154.47,698.37c.61-.49,1.51-1.48,2.47-1.54,3.82-.18,7.66-.08,11.58-.08.07-.21.28-.55.28-.87-.12-11.99,1.62-9.61-9.38-9.94-1.74-.05-3.47-.58-5.1-1.1.21-.25.34-.29.44-.31,2.56.03,5.13.09,7.69.11,2.42.03,4.86,0,7.48,0v13.63c-5.16,0-10.14,0-15.46.09h0Z"/>
  <path class="st2" d="M213.23,551.44c.67-.47,1.49-1.28,2.32-1.28,26.39-.06,52.78-.03,79.16,0,.23,0,.44.11.88.37.21.2.3.26-.03.27-1.72.05-3.12.12-4.53.12-24.29,0-48.57,0-72.86.05-1.49,0-2.97.37-4.45.58l-.5-.11h0Z"/>
  <path class="st0" d="M214.07,551.59c1.16-.25,2.63-.62,4.11-.62,24.29-.03,48.57-.03,72.86-.05,1.4,0,2.8-.08,4.53-.08-1.14.29-2.59.72-4.05.73-25.71.05-51.42.05-77.46,0h0,0Z"/>
  <path class="st9" d="M369.67,605.72c2.85.98,5.81,2.25,8.82,3.37,9.99,3.69,19.69,3.19,29.07-2.17.67-.38,1.52-.47,2.57-.68-4.75,2.12-9.59,5-14.81,6.12-8.74,1.89-17-.68-24.58-5.38-.38-.23-.63-.69-1.05-1.26h0Z"/>
  <path class="st6" d="M475.59,687.12c-3.67-.47-7.49-.96-11.19-1.93-7.14-1.86-13.26.76-19.3,4.09-.38.21-.9.18-1.62.25,3.02-3.81,7.39-5.43,12.1-6.06,6.93-.93,13.75-.64,20.01,3.65h0Z"/>
  <path class="st6" d="M107.72,686.4c-.79.09-1.87.23-2.55-.25-3.95-2.7-8.26-2.32-12.6-1.8-3.47.41-7.11-.73-10.43,1.54-1.72,1.17-3.84,1.72-5.92,2.35,3.59-1.98,7.15-4.62,11.06-5.38,6.97-1.34,14.08-1.15,20.44,3.55h0Z"/>
  <path class="st1" d="M551.97,682.8c-.36.68-.94,1.54-1.43,1.48-9.21-.95-17.85.38-25.37,6.41-.32.26-.88.21-1.6.29,4.74-6.02,11.65-7.69,18.81-8.54,3.09-.37,6.27.03,9.59.35h0Z"/>
  <path class="st9" d="M410.41,541.47c-.47.14-1.22.35-1.72.06-9.02-5.17-18.46-5.23-28.25-2.82-2.18.53-4.69-.36-7.04-.9,2.57-.29,5.25.21,7.68-.38,10.25-2.51,20.03-2.01,29.31,4.06h0v-.02Z"/>
  <path class="st9" d="M422.2,324.07c-1,.05-2.21.09-3.24-.36-7.25-3.13-14.76-2.99-22.18-1.34-3.99.88-7.68,3.11-11.77,4.67,3.31-1.88,6.73-4.21,10.48-5.41,9.06-2.93,17.97-1.72,26.69,2.46h0v-.02Z"/>
  <path class="st7" d="M312.3,538.58c3.89-9.27,2.13-19.26,2.61-29.01.09-1.8,1.19-3.52,1.83-5.28,1.78.85,3.73,1.5,5.32,2.65,1.07.76,1.6,2.26,2.38,3.7-1.68-1.28-3.26-2.91-5.03-4.3-.7-.56-2.06-1.02-2.68-.69-.67.36-1.1,1.72-1.11,2.65-.09,6.37.3,12.78-.18,19.11-.29,3.75-1.9,7.38-3.12,11.18h0l-.02.02Z"/>
  <path class="st6" d="M175.17,723.68c.61,0,1.68.31,1.7.68.5,7.53,3.41,14.23,6.64,21.09-5.8-5.76-7.57-13.42-8.35-21.78h0Z"/>
  <path class="st7" d="M426.45,511.97c5.97,2.33,12.03,4.54,18.5,3.52,4.96-.78,9.82-2.29,15.02-3.46-3.17,1.4-6.53,3.65-10.07,3.98-7.71.73-15.59,1.25-23.17-2.85-.28-.58-.28-.88-.28-1.19h0Z"/>
  <path class="st7" d="M150.56,551.79c.44.9,1.33,2.06,1.34,3.2.11,10.37-.03,20.74.11,31.1.05,3.72.65,7.44.82,11.32-1.31-1.93-3.19-3.83-1.64-7.15.09-11.68.11-22.77.07-33.85,0-1.15-.34-2.29-.5-3.43-.05-.32-.09-.63-.2-1.19h0Z"/>
  <path class="st7" d="M423.21,592.48c.69-2.66,1.8-5.4,2.45-8.24,1.77-7.7,2.15-15.4-1.02-22.91-.26-.62-.2-1.39-.26-2.39,3.82,6.18,4.2,13.36,3.15,20.47-.65,4.42-2.69,8.63-4.34,13.06h.02Z"/>
  <path class="st6" d="M442.63,750.25c.24-.23.73-.4.92-.23,5.5,4.67,12.39,4.61,18.87,5.98.17.03.29.35.49.79-7.56.89-14.45-.83-20.27-6.56h0Z"/>
  <path class="st2" d="M114.52,546.23c9.11,5.4,19.28,3.7,29.21,3.89,1.97.03,3.95.12,5.92.21.06,0,.15.15.15.23,0,.11-.06.23-.56.49-8.54.08-16.6,0-24.66-.08-3.32-1.5-6.64-2.98-10.05-4.73h0Z"/>
  <path class="st6" d="M246,716.59c-.73-.85-1.66-1.93-2.01-3.19-1.51-5.12-2.83-10.3-4.22-15.73,4.19,5.29,5.64,11.81,6.23,18.92h0Z"/>
  <path class="st6" d="M239.98,742.79c.3-1.52.94-3.11,1.34-4.77.93-3.89,1.7-7.83,2.65-11.71.2-.79.96-1.43,1.7-2.18.09,6.73-1.93,12.89-5.71,18.66h.02Z"/>
  <path class="st1" d="M561,736.32c-1.72,5.92-9.92,10.08-15.12,7.53,2.09-.52,4.28-.62,6.4-1.04,3.82-.76,6.02-3.86,8.72-6.51h0v.02Z"/>
  <path class="st5" d="M150.7,553.32c.21.82.55,1.95.55,3.11.03,11.08.03,22.16,0,33.58-.17-2.49-.44-5.31-.47-8.13-.09-9.41-.09-18.82-.09-28.57h0v.02Z"/>
  <path class="st7" d="M346.82,478.93c.32.29.32.59.3,1.1-4.81-.32-9.64-.96-14.47-1.33-1.49-.11-3.05.55-5.01.9-.59.05-.73.03-.87.03,1.62-.72,3.25-2.09,4.84-2.04,4.98.15,9.93.84,15.2,1.33h0Z"/>
  <path class="st1" d="M565.41,688.53c-.49.32-1.2.68-1.63.47-3.41-1.71-6.78-3.51-10.2-5.54,3.88,1.45,7.81,3.16,11.83,5.07h0Z"/>
  <path class="st6" d="M464.67,757.11c0-.52.21-1.3.61-1.41,3.5-1.01,7.04-1.92,10.86-2.83-3.54,1.45-7.37,2.87-11.47,4.24h0Z"/>
  <path class="st1" d="M421.49,712.29c-.67-.15-1.68-.49-1.84-1.05-.98-3.51-1.78-7.09-2.44-10.77,1.57,3.75,2.94,7.64,4.28,11.82h0Z"/>
  <path class="st0" d="M124.78,551.15c7.84-.12,15.9-.05,24.26.03.29,0,.52.2.63.29-8.15.03-16.41-.06-24.89-.33h0Z"/>
  <path class="st9" d="M378.73,332.06c-2.22,3.78-4.63,7.7-7.25,11.67,2.21-3.83,4.64-7.68,7.25-11.67Z"/>
  <path class="st1" d="M578.06,708.7c-1.64-3.4-3.25-7.09-4.84-11.06,1.63,3.4,3.26,7.09,4.84,11.06Z"/>
  <path class="st1" d="M421.82,725.34c-.38-3.51-.53-7.21-.47-11.12.38,3.5.55,7.23.47,11.12Z"/>
  <path class="st1" d="M578.41,724.18c-.23-2.85-.15-5.66.17-8.6.2,2.79.17,5.72-.17,8.6Z"/>
  <path class="st7" d="M479.75,486.5c-.24-4.99-.44-10.29-.61-15.93.32,3.11.69,6.56.87,10.02.09,1.86-.14,3.74-.26,5.92h0v-.02Z"/>
  <path class="st1" d="M162.1,667.24c1.39-.49,3.08-1.1,4.81-1.28,1.08-.12,2.22.38,3.62.62-.59.49-1.48,1.34-2.36,1.34-1.91.03-3.82-.4-6.06-.68h0Z"/>
  <path class="st1" d="M532.52,735.29c-2.85-1.54-4.51-5.6-3.18-8.27,1.2,2.65,2.15,5.33,3.18,8.27Z"/>
  <path class="st7" d="M479.17,469.99c-1.39-3.37-2.83-7.05-4.24-11,1.42,3.37,2.8,7.03,4.24,11Z"/>
  <path class="st1" d="M575.58,743.49c-.81-2.14,2.54-4.36-.24-6.86,1.08-.25,2.19-.25,3.73-.25-1.17,2.51-2.21,4.76-3.49,7.11h0Z"/>
  <path class="st7" d="M325.12,511.85c2.03,2,4.18,4.23,6.27,6.71-2.07-1.99-4.11-4.24-6.27-6.71Z"/>
  <path class="st1" d="M419.02,736.3c.5-2.76,1.23-5.64,2.19-8.57-.5,2.78-1.23,5.61-2.19,8.57Z"/>
  <path class="st9" d="M329.82,488.33c-3.03-1.28-4.78-5.28-3.12-7.81,1.16,2.49,2.07,5.05,3.12,7.81Z"/>
  <path class="st1" d="M544.27,743.25c-2.96,1.74-4.87-.31-6.82-2.5,2.21.59,4.45,1.43,6.82,2.5Z"/>
  <path class="st7" d="M456.57,442c-2.91-.29-5.98-.81-9.03-1.34-.05,0-.11-.23-.09-.27.15-.18.32-.35.61-.67,2.88.58,5.62,1.31,8.49,2.27h0Z"/>
  <path class="st6" d="M238.3,695.06c-2.86.2-4.2-1.68-4.87-4.58,1.6,1.28,3.2,2.81,4.87,4.58Z"/>
  <path class="st1" d="M154.18,676.39c-1.69-2.49-.35-4.41,1.86-6.17-.43,1.95-1.1,3.93-1.86,6.17Z"/>
  <path class="st6" d="M438.9,746.4c1.14.89,2.42,2,3.67,3.37-1.2-.88-2.38-2.01-3.67-3.37Z"/>
  <path class="st9" d="M111.95,360.09c-.84,1.41-1.84,2.94-3.11,4.51.82-1.43,1.86-2.91,3.11-4.51Z"/>
  <path class="st1" d="M116.06,698.65c-3.47-.14-1.54-3.4-2.69-5.31.9,1.48,1.81,3.26,2.69,5.31Z"/>
  <path class="st6" d="M183.5,745.96c1.37,1.02,2.79,2.3,4.22,3.83-1.39-1.02-2.79-2.3-4.22-3.83Z"/>
  <path class="st9" d="M407.89,492.51c1.2,1.89,2.48,4.02,3.73,6.42-1.23-1.88-2.44-4.03-3.73-6.42Z"/>
  <path class="st6" d="M409.84,749.85c.87-1.26,1.97-2.52,3.19-3.58-.9,1.33-1.93,2.45-3.19,3.58Z"/>
  <path class="st9" d="M384.57,327.02c-1.02,1.15-2.3,2.36-3.79,3.46,1.02-1.21,2.3-2.3,3.79-3.46Z"/>
  <path class="st9" d="M415.7,504.78c1.37.98,2.88,2.15,4.37,3.58-1.43-.95-2.83-2.18-4.37-3.58Z"/>
  <path class="st1" d="M72.13,705.3c.88-1.21,1.97-2.52,3.19-3.66-.9,1.3-1.95,2.42-3.19,3.66Z"/>
  <path class="st1" d="M170.87,657.66c-1.39-.49-2.73-1.25-4.11-2.25,1.57.08,3.66-.56,4.11,2.25Z"/>
  <path class="st6" d="M443.01,689.52c-.76,1.17-1.77,2.39-3.03,3.61.76-1.19,1.78-2.38,3.03-3.61Z"/>
  <path class="st6" d="M359.7,746.66c1.14.78,2.33,1.8,3.54,3.09-1.16-.78-2.33-1.8-3.54-3.09Z"/>
  <path class="st7" d="M474.22,457.09c-1.05-1.13-2.15-2.5-3.15-4.13,1.1,1.13,2.1,2.5,3.15,4.13Z"/>
  <path class="st1" d="M578.76,713.74c-.4-.9-.75-2.08-.87-3.29.46.99.69,2,.87,3.29Z"/>
  <path class="st8" d="M117.41,744.91c-.3-1.2-.35-2.56-.32-4.15.24,1.17.41,2.59.32,4.15Z"/>
  <path class="st9" d="M347.86,508.81c-1.08-.87-2.24-1.95-3.31-3.3,1.13.85,2.18,1.97,3.31,3.3Z"/>
  <path class="st9" d="M426.3,511.78c.15.5.15.81.15,1.34-1.13-.53-2.24-1.3-3.47-2.27.98.11,2.07.42,3.32.94Z"/>
  <path class="st9" d="M426.56,326.51c-1.25-.49-2.67-1.13-4.18-2,1.28.46,2.65,1.16,4.18,2Z"/>
  <path class="st9" d="M359.82,522.46c-.85-.61-1.8-1.43-2.69-2.52.9.59,1.77,1.45,2.69,2.52Z"/>
  <path class="st9" d="M352.8,514.56c-.81-.66-1.7-1.54-2.42-2.64.9.66,1.62,1.54,2.42,2.64Z"/>
  <path class="st9" d="M340.21,500.21c-.85-.64-1.78-1.51-2.61-2.64.9.63,1.72,1.52,2.61,2.64Z"/>
  <path class="st9" d="M412.87,501.24c.85.78,1.8,1.74,2.67,2.96-.9-.75-1.72-1.77-2.67-2.96Z"/>
  <path class="st9" d="M332.44,491.54c-.81-.64-1.69-1.51-2.5-2.62.85.63,1.64,1.52,2.5,2.62Z"/>
  <path class="st1" d="M415.81,697.23c-1.92.32-2.83-.58-2.54-2.91.88.68,1.7,1.67,2.54,2.91Z"/>
  <path class="st9" d="M366.58,603.26c.9.47,1.91,1.11,2.96,2-.93-.44-1.87-1.14-2.96-2Z"/>
  <path class="st9" d="M371.21,535.81c-.81-.58-1.74-1.34-2.56-2.33.88.57,1.66,1.36,2.56,2.33Z"/>
  <path class="st1" d="M116.82,702.97c-.36-.61-.69-1.47-.82-2.47.43.64.64,1.43.82,2.47Z"/>
  <path class="st2" d="M109.89,542.44c.15-.52.38-.85.59-1.17.4.75.79,1.51,1.04,2.47-.63-.23-1.1-.67-1.63-1.3Z"/>
  <path class="st2" d="M111.75,544.4c.85.26,1.81.7,2.82,1.42-.87-.23-1.78-.73-2.82-1.42Z"/>
  <path class="st9" d="M429.97,329.11c-.99-.44-2.07-1.1-3.06-1.99,1.07.43,2.01,1.11,3.06,1.99Z"/>
  <path class="st7" d="M466.69,448.06c-1.08-.49-2.3-1.16-3.61-2.06,1.1.47,2.3,1.17,3.61,2.06Z"/>
  <path class="st7" d="M421.59,552.71c-.67-.57-1.4-1.37-2.12-2.44.7.56,1.37,1.39,2.12,2.44Z"/>
  <path class="st6" d="M280.31,661.29c-.65-.57-1.31-1.39-1.95-2.47.65.56,1.31,1.4,1.95,2.47Z"/>
  <path class="st9" d="M364.92,528.45c-.63-.49-1.37-1.17-2.09-2.12.67.47,1.33,1.2,2.09,2.12Z"/>
  <path class="st1" d="M571.88,748.4c.18-.59.58-1.28,1.2-1.98-.18.63-.59,1.25-1.2,1.98Z"/>
  <path class="st7" d="M461.82,511.33c.61-.58,1.46-1.21,2.44-1.65-.65.66-1.43,1.14-2.44,1.65Z"/>
  <path class="st1" d="M547.51,724.18c1.22-.21,2.76-.35,4.46-.29-1.27.26-2.71.31-4.46.29Z"/>
  <path class="st9" d="M368.42,532.8c-.61-.52-1.34-1.22-2.01-2.19.67.49,1.29,1.25,2.01,2.19Z"/>
  <path class="st9" d="M406.8,489.25c.4.61.84,1.43,1.14,2.55-.44-.59-.79-1.45-1.14-2.55Z"/>
  <path class="st6" d="M483.02,693.16c.28.38.34.82.4,1.24-.47-.27-.94-.56-1.43-1.08.26-.2.55-.16,1.05-.16h-.02Z"/>
  <path class="st7" d="M460.82,444.17c-.78-.12-1.66-.46-2.65-1.04.79.11,1.66.47,2.65,1.04Z"/>
  <path class="st6" d="M481.25,692.2c-.64-.35-1.37-.9-2.1-1.74.67.32,1.34.93,2.1,1.74Z"/>
  <path class="st7" d="M420.39,596.83c.35-.83.9-1.75,1.69-2.76-.34.83-.92,1.74-1.69,2.76Z"/>
  <path class="st6" d="M477.72,688.6c-.61-.11-1.31-.43-2.04-1.02.64.1,1.29.44,2.04,1.02Z"/>
  <path class="st9" d="M362.09,525.01c-.46-.23-1.02-.63-1.57-1.33.5.2.98.67,1.57,1.33Z"/>
  <path class="st1" d="M574.13,745.67c.11-.63.43-1.36.99-2.1-.09.66-.44,1.34-.99,2.1Z"/>
  <path class="st6" d="M233.38,690.02c-.61-.11-1.31-.43-2.01-1.01.63.09,1.28.44,2.01,1.01Z"/>
  <path class="st6" d="M286.09,670.62c-.44-.33-.93-.89-1.4-1.72.46.32.9.92,1.4,1.72Z"/>
  <path class="st6" d="M284.69,668.44c-.44-.33-.93-.88-1.4-1.71.46.31.9.9,1.4,1.71Z"/>
  <path class="st6" d="M232.96,750.73c.3-.44.81-.96,1.58-1.48-.29.47-.82.94-1.58,1.48Z"/>
  <path class="st6" d="M405.65,752.87c.32-.44.88-.95,1.7-1.43-.32.47-.9.93-1.7,1.43Z"/>
  <path class="st6" d="M283.29,666.28c-.44-.33-.94-.89-1.42-1.72.46.32.92.9,1.42,1.72Z"/>
  <path class="st6" d="M239.75,697.19c-.44-.32-.92-.87-1.4-1.68.46.31.9.89,1.4,1.68Z"/>
  <path class="st0" d="M104.51,522.97c.2.82.26,1.83.26,3.13-.18-.78-.29-1.86-.26-3.13Z"/>
  <path class="st1" d="M77.11,700.42c.32-.46.88-.96,1.69-1.47-.32.49-.9.94-1.69,1.47Z"/>
  <path class="st9" d="M420.83,509.38c.61.11,1.31.43,2.06,1.01-.63-.1-1.29-.46-2.06-1.01Z"/>
  <path class="st9" d="M337.54,497.05c-.4-.12-.88-.41-1.25-.94.47.09.81.43,1.25.94Z"/>
  <path class="st6" d="M567.13,752.17c.17-.33.53-.72,1.02-.93-.2.41-.5.64-1.02.93Z"/>
  <path class="st1" d="M159.21,668.05c.18-.32.58-.68,1.08-.87-.21.4-.55.62-1.08.87Z"/>
  <path class="st9" d="M414.51,603.54c-.03-.42.14-.94.69-1.56.55-.09.69-.09.82-.08-.44.5-.9,1.01-1.51,1.63h0Z"/>
  <path class="st9" d="M304.3,357.15c-.58-.12-1.25-.46-1.98-1.02.58.11,1.23.46,1.98,1.02Z"/>
  <path class="st6" d="M109.06,687.19c-.36.08-.81-.03-1.27-.37.38-.09.79.05,1.27.37Z"/>
  <path class="st7" d="M462.95,445.6c-.58-.12-1.25-.46-1.99-1.02.58.12,1.25.47,1.99,1.02Z"/>
  <path class="st7" d="M418.26,599.74c.2-.58.61-1.25,1.28-1.89-.18.62-.63,1.21-1.28,1.89Z"/>
  <path class="st6" d="M437.65,744.48c.38.2.76.62,1.04,1.28-.43-.2-.71-.63-1.04-1.28Z"/>
  <path class="st9" d="M373.2,537.33c-.53-.15-1.2-.44-1.83-1,.61.11,1.14.49,1.83,1Z"/>
  <path class="st9" d="M309.92,362.23c-.4-.12-.85-.46-1.33-1.04.43.11.85.47,1.33,1.04Z"/>
  <path class="st9" d="M354.15,516.06c-.4-.14-.85-.47-1.31-1.07.43.12.84.49,1.31,1.07Z"/>
  <path class="st9" d="M412.67,604.8c.21-.36.64-.76,1.27-1.08-.21.41-.64.72-1.27,1.08Z"/>
  <path class="st9" d="M411.62,499.35c.36.21.78.62,1.08,1.24-.41-.21-.73-.63-1.08-1.24Z"/>
  <path class="st9" d="M366.34,530.13c-.38-.15-.84-.44-1.19-.96.44.12.78.47,1.19.96Z"/>
  <path class="st9" d="M310.88,363.4c-.24-.05-.58-.29-.92-.75.26.03.55.29.92.75Z"/>
  <path class="st7" d="M424.41,558.49c-.21-.12-.46-.47-.71-1.05.23.12.44.47.71,1.05Z"/>
  <path class="st2" d="M312.77,366.56c-.2-.12-.44-.46-.7-1.02.2.12.43.47.7,1.02Z"/>
  <path class="st9" d="M333.35,492.53c-.23,0-.55-.16-.85-.56.26-.03.5.18.85.56Z"/>
  <path class="st7" d="M422.54,553.95c-.26-.06-.59-.31-.93-.82.28.03.56.33.93.82Z"/>
  <path class="st7" d="M423.26,555.36c-.24-.1-.55-.4-.78-.94.29.09.5.42.78.94Z"/>
  <path class="st7" d="M423.71,557.05c-.18-.17-.4-.56-.5-1.17.23.17.35.57.5,1.17Z"/>
  <path class="st9" d="M302.18,355.73c-.32.09-.73-.03-1.25-.35.32-.09.73.03,1.25.35Z"/>
  <path class="st9" d="M414.56,544.84c-.32-.03-.69-.23-.98-.63.36,0,.64.23.98.63Z"/>
  <path class="st9" d="M411.86,542.38c-.32.05-.73-.03-1.08-.37.38-.09.67.08,1.08.37Z"/>
  <path class="st7" d="M310.12,541.54c.03-.32.23-.73.65-1.02,0,.38-.24.67-.65,1.02Z"/>
  <path class="st9" d="M308.54,360.79c-.32-.03-.69-.23-.96-.63.36,0,.64.23.96.63Z"/>
  <path class="st9" d="M341.77,501.89c-.23,0-.55-.18-.9-.59.26,0,.53.21.9.59Z"/>
  <path class="st9" d="M434.42,333.66c-.21,0-.55-.15-.85-.52.26-.03.5.17.85.52Z"/>
  <path class="st9" d="M350.19,511.26c-.23,0-.56-.18-.9-.61.26,0,.53.23.9.61Z"/>
  <path class="st7" d="M460.39,512.06c.12-.21.46-.47,1.02-.73-.12.23-.46.46-1.02.73Z"/>
  <path class="st9" d="M355.12,517.08c-.23,0-.56-.2-.9-.61.26,0,.53.23.9.61Z"/>
  <path class="st7" d="M422.48,593.92c-.07-.31.05-.75.36-1.28.07.31-.05.75-.36,1.28Z"/>
  <path class="st7" d="M416.19,601.84c-.3.05-.44.03-.79.03.15-.23.5-.46,1.08-.68.18.26.06.46-.3.66h0Z"/>
  <path class="st9" d="M411.66,605.75c.03-.23.2-.58.61-.93,0,.27-.23.55-.61.93Z"/>
  <path class="st7" d="M468.61,449.97c-.32-.03-.71-.23-1.02-.67.38,0,.65.25,1.02.67Z"/>
  <path class="st7" d="M470.96,452.4c-.24-.03-.58-.23-.94-.66.26,0,.55.25.94.66Z"/>
  <path class="st7" d="M474.96,458.55c-.21-.12-.47-.46-.73-1.04.23.11.46.46.73,1.04Z"/>
  <path class="st7" d="M458.03,442.73c-.32.09-.73-.03-1.25-.35.32-.09.73.03,1.25.35Z"/>
  <path class="st7" d="M332.16,519.83c.11-.06.26-.06.29.03-.12.09-.26.05-.29-.03Z"/>
  <path class="st9" d="M342.44,502.74c-.15.05-.35.03-.44-.16.23-.1.32-.03.44.16Z"/>
  <path class="st9" d="M343.18,503.54c-.17.06-.4,0-.53-.27.26-.12.38,0,.53.27Z"/>
  <path class="st9" d="M343.87,504.36c-.18.05-.41-.05-.59-.37.26-.12.43,0,.59.37Z"/>
  <path class="st9" d="M344.54,505.08c-.17.08-.41-.03-.65-.35.2-.09.38.05.65.35Z"/>
  <path class="st9" d="M348.61,509.61c-.15.05-.36-.1-.64-.43.15-.05.36.1.64.43Z"/>
  <path class="st9" d="M431.41,330.6c-.15.05-.35-.09-.63-.41.15-.05.35.09.63.41Z"/>
  <path class="st1" d="M570.56,724.18c0-.15.21-.23.47-.18-.06.16-.17.21-.47.18Z"/>
  <path class="st7" d="M324.41,511.01c.18-.06.44.03.67.37-.21.09-.4-.06-.67-.37Z"/>
  <path class="st9" d="M435.07,334.46c-.14.05-.32.03-.36-.11.12-.14.32.05.36.11Z"/>
  <path class="st9" d="M435.83,335.25c-.17.06-.38,0-.47-.2.24-.11.35-.03.47.2Z"/>
  <path class="st9" d="M430.71,329.88c-.15.05-.35-.09-.63-.41.15-.05.35.09.63.41Z"/>
  <path class="st1" d="M417.54,739.22c-.15-.16-.05-.37.26-.66.07.14,0,.36-.26.66Z"/>
  <path class="st9" d="M379.45,331.35c.14.1.2.23.2.38,0,.06-.11.12-.34.1-.14-.23-.05-.35.15-.49h0Z"/>
  <path class="st1" d="M416.14,742.1c-.15-.16-.05-.37.26-.66.07.12,0,.36-.26.66Z"/>
  <path class="st9" d="M326.79,479.87c.12-.21.26-.21.61-.17.09.25-.03.46-.34.75-.2-.08-.23-.21-.28-.57h0Z"/>
  <path class="st9" d="M432.11,331.32c-.15.05-.35-.09-.63-.41.15-.05.35.09.63.41Z"/>
  <path class="st1" d="M416.84,740.67c-.15-.16-.05-.37.26-.66.07.14,0,.36-.26.66Z"/>
  <path class="st9" d="M333.92,493.3l-.2.31s-.26-.25-.12-.37c.14-.12.26.03.32.06h0Z"/>
  <path class="st1" d="M418.24,737.79c-.15-.16-.05-.37.26-.66.07.14,0,.36-.26.66Z"/>
  <path class="st9" d="M334.67,494.05c-.14.05-.32.03-.36-.1.14-.14.32.05.36.1Z"/>
  <path class="st9" d="M432.81,332.03c-.15.05-.35-.09-.63-.41.15-.05.35.09.63.41Z"/>
  <path class="st9" d="M380.26,330.58c.06.17,0,.4-.21.5-.12-.26-.03-.37.21-.5Z"/>
  <path class="st9" d="M335.37,494.77c-.15.06-.32.05-.41-.12.11-.16.36.05.41.12Z"/>
  <path class="st9" d="M433.51,332.75c-.15.05-.35-.09-.63-.41.15-.05.35.09.63.41Z"/>
  <path class="st9" d="M336.13,495.55c-.15.06-.36.03-.46-.17.23-.11.34-.03.46.17Z"/>
  <path class="st7" d="M467.42,448.81c-.17.08-.4.05-.55-.2.26-.16.38-.06.55.2Z"/>
  <path class="st1" d="M113.26,692.25c-.23.09-.38-.08-.53-.46.15-.03.35.12.53.46Z"/>
  <path class="st7" d="M419.9,597.71c-.11-.14-.07-.4.15-.75.12.15.06.4-.15.75Z"/>
  <path class="st9" d="M364.42,601.01c.17-.06.4,0,.55.26-.26.12-.38.03-.55-.26Z"/>
  <path class="st7" d="M416.84,601.18c-.03-.15.11-.37.44-.66.03.15-.11.37-.44.66Z"/>
  <path class="st9" d="M365.16,601.78c.15-.08.38-.03.55.21-.23.15-.38.05-.55-.21Z"/>
  <path class="st0" d="M154.72,684.4c-.09.18-.2.21-.47.17-.15-.08-.14-.42-.06-.57.28-.08.41.06.53.41h0Z"/>
  <path class="st9" d="M365.83,602.44c.17-.06.4,0,.55.26-.26.14-.38.03-.55-.26Z"/>
  <path class="st9" d="M410.52,606.25c.03-.14.2-.31.55-.38.03.27-.17.35-.55.38Z"/>
  <path class="st9" d="M305.04,357.93c-.15.05-.35-.09-.63-.41.15-.05.35.09.63.41Z"/>
  <path class="st9" d="M305.74,358.23c-.09.1-.3.14-.61,0,.09-.12.29-.09.61,0Z"/>
  <path class="st9" d="M306.58,358.9c-.14.05-.32.05-.38-.11.11-.15.34.05.38.11Z"/>
  <path class="st9" d="M355.82,517.96c-.18.05-.41-.03-.55-.32.26-.11.4,0,.55.32Z"/>
  <path class="st9" d="M307.31,359.64c-.15.05-.34.03-.41-.14.11-.16.38.06.41.14Z"/>
  <path class="st7" d="M331.4,518.97c.18-.06.44.03.61.32-.28.15-.44,0-.61-.32Z"/>
  <path class="st9" d="M356.48,518.78c-.18.05-.41-.08-.61-.41.2-.06.38.09.61.41Z"/>
  <path class="st9" d="M357.15,519.54c-.17.06-.41-.06-.65-.41.2-.08.38.08.65.41Z"/>
  <path class="st9" d="M360.52,523.26c-.15.05-.36-.1-.61-.43.15-.05.36.1.61.43Z"/>
  <path class="st9" d="M362.83,525.93c-.18.05-.41-.06-.58-.38.26-.11.43.03.58.38Z"/>
  <path class="st9" d="M436.36,336.39c-.14,0-.3-.2-.4-.57.26-.03.36.16.4.57Z"/>
  <path class="st7" d="M311.78,539.48c-.11-.14-.06-.4.15-.75.12.15.05.4-.15.75Z"/>
  <path class="st7" d="M311.29,540.25c-.09-.16-.07-.41.15-.62.2.23.09.4-.15.62Z"/>
  <path class="st9" d="M412.62,542.99c-.15.09-.38.05-.61-.2.21-.18.38-.09.61.2Z"/>
  <path class="st9" d="M413.32,543.68c-.15.08-.36.05-.49-.16.23-.14.34-.06.49.16Z"/>
  <path class="st9" d="M311.4,364.41c-.15,0-.34-.17-.5-.56.17,0,.3.18.5.56Z"/>
  <path class="st9" d="M415.27,545.57c-.14.05-.35-.09-.64-.41.15-.05.35.09.64.41Z"/>
  <path class="st7" d="M419.46,549.9c-.15.03-.35-.11-.63-.44.15-.03.35.11.63.44Z"/>
  <path class="st7" d="M381.72,465.4c6.08.37,12.33.98,18.57,1.54,1.95.17,3.9.26,6.15.31-.36.37-1.08,1.28-1.68,1.2-7.63-.87-15.25-1.86-23.06-3.05h.02Z"/>
  <path class="st7" d="M329.16,458.75c3.88.29,7.74.88,11.61,1.45,2.3.33,4.59.63,7.02,1.2-5.7-.25-11.53-.72-17.36-1.28-.44-.03-.84-.7-1.25-1.37h0Z"/>
  <path class="st7" d="M366.97,463.97c4.65.1,9.48.42,14.48,1-4.66-.09-9.48-.43-14.48-1Z"/>
  <path class="st7" d="M328.24,448.3c-2.48,3.4.15,6.48.9,9.93-2.94-1.67-3.64-7.16-.9-9.93Z"/>
  <path class="st7" d="M361.96,413.81c-1.78,2.09-3.79,4.15-6.03,6.28,1.78-2.06,3.78-4.19,6.03-6.28Z"/>
  <path class="st7" d="M353.63,462.53c1.87-.12,3.93-.03,6.11.32-1.89.12-3.91.03-6.11-.32Z"/>
  <path class="st7" d="M360.69,463.41c1.84-.16,3.88-.12,6.05.15-1.86.17-3.85.11-6.05-.15Z"/>
  <path class="st7" d="M349.44,461.97c1.16-.15,2.51-.1,3.97.16-1.19.15-2.48.09-3.97-.16Z"/>
  <path class="st7" d="M344.37,431.71c-.3.68-.85,1.36-1.6,2.17.32-.64.84-1.4,1.6-2.17Z"/>
  <path class="st7" d="M345.67,430.2c-.06.49-.38.93-.9,1.48.09-.43.36-.98.9-1.48Z"/>
  <path class="st7" d="M382.83,392.56c-.12.43-.36.72-.75,1.08.11-.35.38-.79.75-1.08Z"/>
  <path class="st7" d="M379.51,395.83c-.09.46-.43.87-.92,1.4.12-.41.4-.92.92-1.4Z"/>
  <path class="st7" d="M364.8,411.06c-.09.47-.43.83-.9,1.28.12-.4.4-.89.9-1.28Z"/>
  <path class="st7" d="M338.81,437.6c-.09.46-.43.84-.9,1.33.12-.4.4-.9.9-1.33Z"/>
  <path class="st7" d="M336.77,439.75c-.03.38-.26.67-.64,1.02.03-.32.24-.72.64-1.02Z"/>
  <path class="st7" d="M363.38,412.46c-.12.47-.47.84-.99,1.33.14-.41.44-.9.99-1.33Z"/>
  <path class="st7" d="M329.69,446.98c-.12.47-.49.84-1,1.3.15-.41.46-.9,1-1.3Z"/>
  <path class="st7" d="M333.66,443.07c-.11.43-.46.87-1.02,1.39.12-.41.44-.9,1.02-1.39Z"/>
  <path class="st7" d="M352.23,423.35c0,.4-.23.68-.63,1.02.03-.33.21-.73.63-1.02Z"/>
  <path class="st7" d="M353.33,422.22c.03.29-.18.57-.53.95,0-.25.15-.61.53-.95Z"/>
  <path class="st7" d="M365.99,409.96c0,.27-.26.56-.65.95.03-.25.21-.59.65-.95Z"/>
  <path class="st7" d="M332.26,444.5c.03.29-.2.57-.56.95,0-.25.15-.61.56-.95Z"/>
  <path class="st7" d="M372.57,403.22c0,.38-.23.67-.61,1.01.03-.33.2-.73.61-1.01Z"/>
  <path class="st7" d="M331.1,445.58c.15.26.06.38-.17.53-.07-.17-.05-.41.17-.53Z"/>
  <path class="st7" d="M334.43,442.37c.05.15-.09.37-.41.67-.05-.15.09-.37.41-.67Z"/>
  <path class="st7" d="M337.41,439.04c.15.26.03.42-.29.63-.06-.17,0-.43.29-.63Z"/>
  <path class="st7" d="M341.62,434.68c.15.26.03.44-.32.67-.07-.18,0-.43.32-.67Z"/>
  <path class="st7" d="M340.92,435.39c.15.26.03.44-.32.67-.07-.18,0-.44.32-.67Z"/>
  <path class="st7" d="M342.33,433.97c.15.26.03.44-.32.67-.07-.18,0-.43.32-.67Z"/>
  <path class="st7" d="M340.22,436.1c.15.26.03.44-.3.67-.07-.18,0-.43.3-.67Z"/>
  <path class="st7" d="M330.39,446.3c.14.27.03.41-.23.57-.06-.18,0-.42.23-.57Z"/>
  <path class="st7" d="M375.32,400.25c.14.26.03.41-.24.58-.06-.17,0-.42.24-.58Z"/>
  <path class="st7" d="M380.23,395.11c.09.21-.05.41-.34.69-.07-.18.03-.44.34-.69Z"/>
  <path class="st7" d="M354.11,421.55c.05.15-.09.37-.44.66-.05-.15.09-.37.44-.66Z"/>
  <path class="st7" d="M354.84,420.85c.05.16-.11.37-.44.66-.03-.16.11-.38.44-.66Z"/>
  <path class="st7" d="M378.14,397.31c.15.25.05.42-.24.63-.07-.17-.03-.42.24-.63Z"/>
  <path class="st7" d="M377.44,398.09c.15.26.05.42-.24.59-.07-.17-.03-.42.24-.59Z"/>
  <path class="st7" d="M376.74,398.81c.15.26.05.41-.21.58-.07-.17-.03-.42.21-.58Z"/>
  <path class="st7" d="M376.04,399.55c.14.26.03.4-.21.57-.07-.17-.03-.41.21-.57Z"/>
  <path class="st7" d="M351.3,424.43c.06.16-.07.4-.4.68-.06-.16.07-.4.4-.68Z"/>
  <path class="st7" d="M374.64,400.95c.15.26.03.42-.26.61-.07-.17,0-.42.26-.61Z"/>
  <path class="st7" d="M373.94,401.68c.15.25.06.4-.2.58-.07-.17-.05-.41.2-.58Z"/>
  <path class="st7" d="M373.22,402.44c.15.25.06.36-.15.52-.14-.1-.2-.25-.21-.41,0-.06.12-.14.36-.11h0Z"/>
  <path class="st7" d="M371.65,404.29c.05.16-.09.38-.41.67-.05-.16.09-.38.41-.67Z"/>
  <path class="st7" d="M370.95,405.02c.06.16-.06.4-.38.7-.06-.16.06-.4.38-.7Z"/>
  <path class="st7" d="M355.55,420.15c.06.17-.09.4-.43.68-.05-.17.09-.41.43-.68Z"/>
  <path class="st7" d="M339.53,436.85c.15.26.05.43-.26.66-.07-.18,0-.43.26-.66Z"/>
  <path class="st7" d="M370.28,405.75c.05.16-.09.4-.44.7-.05-.16.09-.4.44-.7Z"/>
  <path class="st7" d="M368.22,407.9c.03.16-.14.38-.5.7-.03-.15.12-.4.5-.7Z"/>
  <path class="st7" d="M347.84,428.02c.05.16-.11.38-.46.7-.03-.15.11-.4.46-.7Z"/>
  <path class="st7" d="M346.5,429.48c.05.17-.11.41-.46.72-.05-.16.09-.41.46-.72Z"/>
  <path class="st7" d="M349.23,426.58c.05.15-.11.38-.44.7-.03-.15.11-.38.44-.7Z"/>
  <path class="st7" d="M381.64,393.69c.15.26.03.44-.32.67-.07-.17,0-.43.32-.67Z"/>
  <path class="st7" d="M380.94,394.42c.15.27,0,.46-.35.67-.06-.18.03-.44.35-.67Z"/>
  <path class="st7" d="M350.62,425.16c.05.16-.09.38-.44.69-.05-.15.09-.4.44-.69Z"/>
  <path class="st6" d="M452.81,704.71c-3.55,7.76-4.3,15.95-2.47,24.39.4,1.8,1.33,3.49,2.01,5.49-1.6-2.97-4.17-6.08-4.59-9.47-.9-7.2.06-14.37,5.04-20.41h0Z"/>
  <path class="st1" d="M483.65,724.73c-.24-6.12-.29-12.29-3.24-18.25.85.53,2.39,1.24,2.53,2.15.75,5.06,1.16,10.17,1.63,15.28.03.23-.43.49-.93.82h0Z"/>
  <path class="st1" d="M468.54,697.86c-4.55.23-9.15.23-13.04,3.72-.24-.23-.26-.37-.26-.5,2.42-3.56,6.24-4.29,9.99-4.91.99-.16,2.18.93,3.31,1.69h0Z"/>
  <path class="st1" d="M481.51,733.38c.32-2.21.9-4.47,1.62-6.94,1.7,2.61.43,4.81-1.62,6.94Z"/>
  <path class="st1" d="M460.22,742.03c.93.03,1.69.16,2.62.46-.21.58-.59,1-.96,1.41-.61-.59-1.22-1.19-1.66-1.86h0Z"/>
  <path class="st1" d="M468.61,742.99c.75-.47,1.52-.72,2.54-.94-.67.4-1.6.78-2.54.94Z"/>
  <path class="st1" d="M473.45,699.31c-1.02-.1-2.06-.43-3.29-.92.96.12,2.1.41,3.29.92Z"/>
  <path class="st1" d="M473.62,741.49c.63-.68,1.4-1.16,2.39-1.73-.61.59-1.43,1.26-2.39,1.73Z"/>
  <path class="st6" d="M454.97,701.11c.26.1.26.23.29.58-.55.88-1.11,1.56-1.87,2.32.3-.9.82-1.88,1.6-2.9h-.02Z"/>
  <path class="st1" d="M464.41,743.08c.71-.26,1.46-.29,2.48-.26-.35,1.94-1.31,1.74-2.48.26Z"/>
  <path class="st1" d="M479.96,736.24c.09-.68.44-1.39.98-2.2-.11.64-.41,1.41-.98,2.2Z"/>
  <path class="st1" d="M480.45,705.99c-.46-.33-.9-.93-1.42-1.75.44.35.93.92,1.42,1.75Z"/>
  <path class="st1" d="M476.24,700.97c-.65-.1-1.31-.49-2.1-1.05.61.12,1.35.46,2.1,1.05Z"/>
  <path class="st6" d="M402.22,733.43c2.77-9.79,3.33-19.5-1.84-29.16,4.1.9,3.73,5.06,4.66,8.02,1.87,5.98,1.57,12.12-.7,18.03-.43,1.1-1.25,2.04-2.13,3.11h0Z"/>
  <path class="st6" d="M376.68,740.78c9.9,3.97,17.64,2.61,23.55-4.44-.76,1.52-1.43,3.52-2.77,4.73-4.14,3.7-14.64,4.33-19.39,1.42-.55-.33-.93-.98-1.39-1.72h0Z"/>
  <path class="st6" d="M370.68,706.86c-2.13,5.99-2.09,12.34-1.81,19.06-.7-.23-1.93-.81-1.92-1.34.15-6.07-.67-12.39,3.73-17.71h0Z"/>
  <path class="st6" d="M396.89,700.29c-2.62-.69-5.24-1.65-8.1-2.71,1.04-.41,2.54-1.3,3.54-.9,1.69.68,3.06,2.18,4.58,3.6h-.02Z"/>
  <path class="st6" d="M368.76,727.68c1.6,3.14,2.98,6.33,4.46,9.75-2.67-.84-5.56-6.83-4.46-9.75Z"/>
  <path class="st6" d="M384.3,697.19c-2.59,1.21-5.22,2.18-8.09,3.22,1.51-2.96,5.51-4.67,8.09-3.22Z"/>
  <path class="st6" d="M374.58,739.28c.63.11,1.27.49,2.01,1.08-.59-.14-1.29-.47-2.01-1.08Z"/>
  <path class="st6" d="M372.08,704.01c.07.44-.12.95-.41,1.62-.03-.41.07-.99.41-1.62Z"/>
  <path class="st6" d="M400.68,736.23c-.03-.44.2-.93.53-1.59-.03.4-.15.98-.53,1.59Z"/>
  <path class="st6" d="M370.62,705.5c.17-.06.15.03.17.05-.17.09-.35.15-.53.21.06-.06.14-.12.36-.26h0Z"/>
  <path class="st1" d="M533.94,701.51c-1.37,3.74-2.97,7.32-4.84,11.54h32.69c-.67-2.66-1.33-5.22-2.03-8.05,1.14,2.24,2.47,4.71,3.35,7.33.14.41-1.72,2.19-2.65,2.2-9.7.18-19.39.18-29.09.03-.88,0-2.12-1.39-2.55-2.41-.88-2.12,2.69-9.62,5.1-10.65h0v.02Z"/>
  <path class="st1" d="M547.86,695.71c-2.33.55-4.71.84-7.37,1.07,1.89-2.67,4.51-2.7,7.37-1.07Z"/>
  <path class="st1" d="M552.79,697.19c-1.02-.09-2.07-.42-3.31-.89,1.66-3,2.19.08,3.31.89Z"/>
  <path class="st1" d="M536.48,698.96c-.38.72-1.07,1.43-1.89,2.29.44-.67,1.02-1.48,1.89-2.29Z"/>
  <path class="st1" d="M556.28,699.52c-.92-.32-1.84-.93-2.88-1.74.88.35,1.87.9,2.88,1.74Z"/>
  <path class="st1" d="M539.32,696.79c-.53.69-1.34,1.39-2.36,2.13.55-.67,1.31-1.41,2.36-2.13Z"/>
  <path class="st1" d="M559.1,703.17c-.5-.32-.98-.93-1.52-1.77.47.33,1,.92,1.52,1.77Z"/>
  <path class="st6" d="M225.1,736.23c4.59-10.05,4.75-20.24.36-30.74.73.37,1.95.75,2.34,1.56.85,1.74,1.63,3.67,1.83,5.59.35,3.35.67,6.82.21,10.11-.55,3.97-1.86,7.83-2.97,11.7-.2.69-1.02,1.19-1.78,1.78h.02Z"/>
  <path class="st6" d="M199.77,739.98c5.85,3.17,11.94,3.98,18.61,1.46-1.57,1.1-3.52,3.29-5.25,3.13-4.65-.43-9.83,0-13.36-4.6h0Z"/>
  <path class="st6" d="M197.57,702.6c-3.06,4.24-4.2,9.25-4.75,14.76-2.09-4.87,0-11.74,4.75-14.76Z"/>
  <path class="st6" d="M192.41,722.7c1.16,3.6,2.06,7.25,2.98,11.18-3.64-2.44-5.06-7.35-2.98-11.18Z"/>
  <path class="st6" d="M222.11,700.97c-2.86-.92-5.73-2.09-8.83-3.37.71-.55,2.01-1.62,2.55-1.31,2.22,1.25,4.2,2.91,6.28,4.68h0Z"/>
  <path class="st6" d="M208.09,697.23c-1.43.7-2.89,1.16-4.61,1.62,1.04-1.47,2.15-3.48,4.61-1.62Z"/>
  <path class="st6" d="M222.4,739.17c.52-.93,1.29-1.84,2.28-2.87-.53.89-1.28,1.88-2.28,2.87Z"/>
  <path class="st6" d="M195.55,734.93c.67.58,1.33,1.45,2.07,2.55-1.8.47-2.3-.57-2.07-2.55Z"/>
  <path class="st6" d="M200.66,699.89c-.41.72-1.14,1.31-2.07,2.03.44-.64,1.11-1.39,2.07-2.03Z"/>
  <path class="st6" d="M219.42,741.36c.38-.55.98-.99,1.78-1.5.21,1.15.38,2.58-1.78,1.5Z"/>
  <path class="st6" d="M225.24,704.71c-.41-.2-.7-.62-1.05-1.24.35.21.78.61,1.05,1.24Z"/>
</svg>